<svg width="60" height="60" viewBox="0 0 60 60" fill="none" xmlns="http://www.w3.org/2000/svg">
<g filter="url(#filter0_d)">
<circle cx="29.7343" cy="27.7343" r="19.7343" fill="url(#paint0_linear)"/>
</g>
<path fill-rule="evenodd" clip-rule="evenodd" d="M36.0352 37.0823L24.1261 37.0823C22.0614 37.0823 20.3866 35.3903 20.3866 33.3043L20.3866 22.1647C20.3866 20.0787 22.0614 18.3867 24.1261 18.3867L36.0352 18.3867C38.0999 18.3867 39.7747 20.0787 39.7747 22.1647L39.7747 33.3066C39.7723 35.3926 38.0999 37.0823 36.0352 37.0823ZM30.0809 32.9277C27.0252 32.9277 24.5415 30.5969 24.5415 27.7345C24.5415 24.8697 27.0252 22.5412 30.0809 22.5412C33.1342 22.5412 35.6204 24.8697 35.6204 27.7345C35.6204 30.5969 33.1342 32.9277 30.0809 32.9277ZM35.9667 23.2336C36.5413 23.2336 37.0054 22.7695 37.0054 22.195C37.0054 21.6204 36.5413 21.1541 35.9667 21.1563C35.3943 21.1563 34.9281 21.6204 34.9281 22.195C34.9281 22.7673 35.3921 23.2336 35.9667 23.2336Z" fill="white"/>
<defs>
<filter id="filter0_d" x="0" y="0" width="59.4686" height="59.4686" filterUnits="userSpaceOnUse" color-interpolation-filters="sRGB">
<feFlood flood-opacity="0" result="BackgroundImageFix"/>
<feColorMatrix in="SourceAlpha" type="matrix" values="0 0 0 0 0 0 0 0 0 0 0 0 0 0 0 0 0 0 127 0"/>
<feOffset dy="2"/>
<feGaussianBlur stdDeviation="5"/>
<feColorMatrix type="matrix" values="0 0 0 0 0.656753 0 0 0 0 0.684029 0 0 0 0 0.754167 0 0 0 1 0"/>
<feBlend mode="normal" in2="BackgroundImageFix" result="effect1_dropShadow"/>
<feBlend mode="normal" in="SourceGraphic" in2="effect1_dropShadow" result="shape"/>
</filter>
<linearGradient id="paint0_linear" x1="15.5" y1="8.5" x2="66" y2="59" gradientUnits="userSpaceOnUse">
<stop stop-color="#6D3EF3"/>
<stop offset="0.264646" stop-color="#C370F6"/>
<stop offset="0.67227" stop-color="#FB4E59"/>
<stop offset="1" stop-color="#FBCA1C"/>
</linearGradient>
</defs>
</svg>
