<svg width="19" height="13" viewBox="0 0 19 13" fill="none" xmlns="http://www.w3.org/2000/svg">
<path d="M6.08594 0.625H7.59375V8.67969C7.59375 9.76823 7.26562 10.6198 6.60938 11.2344C5.95833 11.849 5.08854 12.1562 4 12.1562C2.86979 12.1562 1.98958 11.8672 1.35938 11.2891C0.729167 10.7109 0.414062 9.90104 0.414062 8.85938H1.91406C1.91406 9.51042 2.09115 10.0182 2.44531 10.3828C2.80469 10.7474 3.32292 10.9297 4 10.9297C4.61979 10.9297 5.11979 10.7344 5.5 10.3438C5.88542 9.95312 6.08073 9.40625 6.08594 8.70312V0.625ZM11.6484 7.54688V12H10.1484V0.625H14.3438C15.5885 0.625 16.5625 0.942708 17.2656 1.57812C17.974 2.21354 18.3281 3.05469 18.3281 4.10156C18.3281 5.20573 17.9818 6.05729 17.2891 6.65625C16.6016 7.25 15.6146 7.54688 14.3281 7.54688H11.6484ZM11.6484 6.32031H14.3438C15.1458 6.32031 15.7604 6.13281 16.1875 5.75781C16.6146 5.3776 16.8281 4.83073 16.8281 4.11719C16.8281 3.4401 16.6146 2.89844 16.1875 2.49219C15.7604 2.08594 15.1745 1.875 14.4297 1.85938H11.6484V6.32031Z" fill="#212121"/>
</svg>
