<svg width="19" height="13" viewBox="0 0 19 13" fill="none" xmlns="http://www.w3.org/2000/svg">
<path d="M4.49219 7.39844H1.82031V12H0.3125V0.625H4.07812C5.35938 0.625 6.34375 0.916667 7.03125 1.5C7.72396 2.08333 8.07031 2.93229 8.07031 4.04688C8.07031 4.75521 7.8776 5.3724 7.49219 5.89844C7.11198 6.42448 6.58073 6.81771 5.89844 7.07812L8.57031 11.9062V12H6.96094L4.49219 7.39844ZM1.82031 6.17188H4.125C4.86979 6.17188 5.46094 5.97917 5.89844 5.59375C6.34115 5.20833 6.5625 4.69271 6.5625 4.04688C6.5625 3.34375 6.35156 2.80469 5.92969 2.42969C5.51302 2.05469 4.90885 1.86458 4.11719 1.85938H1.82031V6.17188ZM18.1875 0.625V8.35938C18.1823 9.43229 17.8438 10.3099 17.1719 10.9922C16.5052 11.6745 15.599 12.0573 14.4531 12.1406L14.0547 12.1562C12.8099 12.1562 11.8177 11.8203 11.0781 11.1484C10.3385 10.4766 9.96354 9.55208 9.95312 8.375V0.625H11.4375V8.32812C11.4375 9.15104 11.6641 9.79167 12.1172 10.25C12.5703 10.7031 13.2161 10.9297 14.0547 10.9297C14.9036 10.9297 15.5521 10.7031 16 10.25C16.4531 9.79688 16.6797 9.15885 16.6797 8.33594V0.625H18.1875Z" fill="#212121"/>
</svg>
