<svg width="279" height="379" viewBox="0 0 279 379" fill="none" xmlns="http://www.w3.org/2000/svg">
<mask id="mask0" mask-type="alpha" maskUnits="userSpaceOnUse" x="0" y="0" width="279" height="379">
<rect width="279" height="379" fill="#C4C4C4"/>
</mask>
<g mask="url(#mask0)">
<path d="M-521.082 970.48C-498.235 994.64 -471.257 1010.95 -438.29 1011.27C-373.492 1011.76 -315.333 947.627 -250.734 949.382C-159.046 951.998 -113.738 1080.16 -23.9642 1098.64C39.4156 1111.84 105.144 1062.19 139.891 999.599C179.337 929.226 169.116 835.798 215.988 773.454C270.895 700.533 387.956 718.61 428.55 633.564C451.827 584.976 427.527 525.841 388.807 495.8C349.986 466.392 300.876 458.226 253.866 447.75C192.857 434.209 141.674 424.493 118.891 352.02C103.523 302.394 105.815 247.278 98.4255 194.798C84.6981 101.57 37.1815 16.9386 -31.4994 -36.2322C-86.2368 -78.6136 -170.8 -97.0763 -219.149 -40.0737C-248.293 -5.76027 -253.766 43.798 -250.395 88.6804C-244.094 173.879 -222.714 270.012 -278.415 347.986C-326.55 414.68 -411.566 406.468 -477.822 437.361C-534.666 463.649 -587.574 509.12 -613.036 571.604C-648.348 659.898 -620.919 758.086 -590.468 844.417C-573.638 888.431 -551.824 937.586 -521.082 970.48Z" stroke="black" stroke-opacity="0.46" stroke-width="0.3" stroke-miterlimit="10" stroke-linecap="round" stroke-linejoin="round"/>
<path d="M-509.047 950.466C-487.709 973.14 -461.773 988.668 -430.615 989.402C-386.768 990.458 -346.303 961.458 -304.318 944.888C-287.697 938.624 -270.707 933.696 -252.807 934.035C-166.247 936.003 -121.728 1054.36 -37.1257 1065.1C-4.76106 1069.21 25.3442 1058.22 55.775 1041.47C85.4394 1025.91 111.653 1002.83 131.01 971.795C169.624 910.356 165.494 826.103 201.17 764.936C203.468 761.363 205.1 758.35 207.399 754.777C257.453 683.197 361.757 693.858 400.708 611.852C423.114 565.102 402.963 509.088 369.828 480.408C336.792 451.097 293.199 441.056 250.471 429.193C199.424 414.986 153.46 405.289 127.107 355.571C124.395 350.719 121.881 344.603 119.936 338.56C103.207 293.928 102.802 244.928 93.4824 197.372C76.0945 112.725 28.4584 32.6119 -36.7039 -20.7423C-63.3509 -42.802 -95.803 -61.0899 -129.772 -66.0448C-167.147 -71.4321 -205.4 -60.1849 -230.264 -27.2726C-256.462 6.75865 -261.068 54.4794 -256.831 97.5255C-249.949 167.958 -231.938 244.956 -260.756 314.078C-265.481 325.716 -271.81 336.506 -279.275 347.152C-324.73 411.586 -406.351 407.669 -469.086 438.351C-522.511 465.063 -572.27 508.985 -596.094 568.436C-629.665 653.057 -604.483 747.066 -575.044 828.735C-559.919 872.518 -538.847 918.989 -509.047 950.466Z" stroke="black" stroke-opacity="0.46" stroke-width="0.3" stroke-miterlimit="10" stroke-linecap="round" stroke-linejoin="round"/>
<path d="M-497.019 930.422C-476.719 952.316 -452.291 966.363 -422.94 967.512C-382.037 968.839 -343.309 943.489 -303.899 928.529C-287.947 922.826 -271.626 918.458 -255.432 918.582C-173.427 919.974 -130.162 1027.85 -50.2565 1031.55C-17.4994 1033.13 10.6281 1019.96 42.9282 1006.03C73.9936 992.584 100.545 974.704 121.502 944.524C161.118 887.734 159.897 807.088 192.998 747.54C194.729 743.896 196.928 740.956 199.128 738.015C244.901 667.841 336.459 671.089 373.771 592.114C394.74 547.124 379.771 494.999 351.849 466.342C323.927 437.685 286.981 425.913 247.495 411.887C200.826 395.662 155.535 385.407 128.859 341.454C126.148 336.603 123.436 331.751 120.824 326.268C102.735 286.625 99.6333 243.732 88.2857 201.724C67.2385 125.646 19.4807 50.0407 -42.2671 -2.87037C-70.3162 -27.0356 -102.268 -48.4766 -138.304 -54.9816C-177.179 -61.8469 -218.194 -47.7339 -242.784 -12.8628C-266.706 21.449 -270.246 66.0745 -265.144 107.289C-256.63 174.694 -237.457 247.959 -264.269 315.389C-268.894 326.392 -274.087 337.324 -281.55 347.968C-324.33 410.151 -401.893 409.967 -461.88 441.633C-512.359 468.068 -558.406 510.518 -580.693 567.575C-611.959 648.606 -588.923 737.816 -561.261 816.021C-545.642 856.639 -525.31 900.431 -497.019 930.422Z" stroke="black" stroke-opacity="0.46" stroke-width="0.3" stroke-miterlimit="10" stroke-linecap="round" stroke-linejoin="round"/>
<path d="M-484.937 910.38C-465.578 930.861 -442.759 944.056 -415.784 945.548C-377.359 947.85 -340.84 925.449 -303.439 912.172C-288.726 906.958 -273.075 903.151 -257.453 903.202C-180.574 903.947 -137.332 1000.84 -63.3629 997.997C-28.9821 996.567 -4.06848 981.705 30.7643 970.033C62.5607 959.263 89.4471 946.582 112.57 917.332C153.084 865.827 154.969 787.535 185.493 729.613C187.124 726.602 188.854 722.959 191.053 720.02C232.642 650.628 310.684 647.658 347.12 570.532C367.218 527.38 356.395 478.372 334.154 450.445C311.913 422.519 281.148 408.315 245.373 392.832C203.084 374.591 159.038 363.852 131.474 325.594C128.663 321.375 125.853 317.156 123.142 312.306C104.262 277.725 98.3661 241.573 84.6227 203.781C59.9188 136.276 12.0426 65.1866 -46.2872 12.725C-75.2675 -12.8387 -107.185 -38.1317 -144.817 -45.4822C-184.62 -53.7521 -229.527 -36.9211 -252.804 0.678149C-274.35 34.6348 -277.023 77.4234 -271.055 116.803C-261.577 181.732 -240.676 251.33 -265.281 315.796C-269.337 326.868 -274.429 337.165 -281.223 347.245C-320.856 407.873 -395.393 410.645 -451.96 442.732C-500.823 470.003 -543.822 511.536 -563.903 565.634C-592.763 642.434 -572.638 728.026 -545.989 801.571C-531.976 841.328 -512.286 881.805 -484.937 910.38Z" stroke="black" stroke-opacity="0.46" stroke-width="0.3" stroke-miterlimit="10" stroke-linecap="round" stroke-linejoin="round"/>
<path d="M-472.858 890.282C-454.908 908.647 -433.228 921.694 -408.061 923.601C-372.012 926.245 -337.799 907.422 -302.974 895.754C-288.931 891.102 -274.518 887.783 -260.034 887.69C-187.711 887.86 -145.429 972.375 -76.4568 964.397C-41.1194 960.516 -18.7515 943.407 18.0458 933.92C50.5734 925.822 78.4619 917.779 103.75 889.457C145.262 842.603 150.621 767.995 178.001 711.625C179.632 708.615 181.262 705.604 182.992 701.963C219.733 633.912 285.031 623.537 319.826 549.448C339.053 508.13 332.843 462.942 315.713 435.672C298.584 408.402 273.995 391.768 241.929 374.829C204.018 354.574 160.548 343.91 132.196 310.711C129.287 307.125 126.378 303.538 123.469 299.951C103.132 270.988 94.6415 240.31 78.8727 208.064C50.514 149.126 2.61854 81.916 -52.3946 30.5338C-82.207 2.94136 -114.19 -25.5699 -153.318 -34.3965C-194.717 -43.5112 -242.18 -25.0824 -265.28 15.0996C-284.452 48.7018 -286.159 89.0252 -279.326 126.571C-268.217 188.469 -246.156 254.33 -268.754 317.098C-272.709 327.535 -277.232 337.9 -283.926 347.347C-320.882 405.718 -391.458 412.849 -445.174 445.285C-488.72 471.933 -528.574 511.919 -547.018 562.988C-574.139 636.121 -555.592 716.98 -530.721 787.059C-517.646 825.397 -498.698 863.194 -472.858 890.282Z" stroke="black" stroke-opacity="0.46" stroke-width="0.3" stroke-miterlimit="10" stroke-linecap="round" stroke-linejoin="round"/>
<path d="M-460.694 869.915C-443.785 887.495 -423.617 899.058 -400.261 901.379C-367.262 904.924 -335.262 889.05 -301.884 879.138C-288.513 875.048 -275.34 872.218 -261.996 871.982C-194.809 871.506 -152.26 943.142 -89.5294 930.525C-53.1444 923.568 -33.9922 904.777 5.32814 897.549C38.6788 891.492 66.8971 888.643 94.3422 861.259C135.609 819.552 145.103 748.09 169.434 692.658C171.064 689.65 172.126 686.569 173.756 683.561C206.209 616.942 258.09 599.733 291.903 528.142C310.255 488.671 308.186 446.609 296.735 420.076C285.283 393.543 266.871 374.486 238.518 356.097C204.989 333.836 162.77 322.691 133.536 295.187C130.529 292.233 127.522 289.279 124.514 286.325C102.825 262.351 91.5444 238.412 73.3848 210.384C41.3784 160.021 -6.62745 97.3385 -58.2174 46.4192C-88.8562 16.808 -120.899 -14.9106 -161.516 -25.2099C-204.401 -35.7971 -255.075 -15.2196 -277.524 28.2325C-294.318 61.47 -295.058 99.3174 -287.461 135.65C-274.723 194.5 -251.505 256.609 -272.09 317.661C-275.476 328.163 -279.898 337.891 -286.021 347.403C-320.292 403.502 -387.363 414.282 -437.651 447.127C-478.242 473.486 -514.376 511.986 -531.279 560.643C-556.088 630.162 -540.353 706.755 -515.928 772.233C-503.793 809.142 -485.688 844.879 -460.694 869.915Z" stroke="black" stroke-opacity="0.46" stroke-width="0.3" stroke-miterlimit="10" stroke-linecap="round" stroke-linejoin="round"/>
<path d="M-448.434 849.498C-432.468 865.663 -413.909 876.374 -392.462 879.738C-361.942 884.255 -332.152 871.327 -300.886 863.727C-288.852 860.756 -276.252 857.856 -263.481 857.549C-201.425 856.428 -158.412 913.943 -101.649 898.654C-63.5511 888.066 -47.7112 868.226 -6.53556 863.812C27.5389 860.425 56.0874 862.763 85.7874 835.685C127.475 798.561 140.434 730.799 162.286 676.376C163.348 673.297 164.977 670.291 166.039 667.212C194.208 602.023 233.349 577.429 264.947 508.819C282.425 471.193 284.962 432.956 278.716 406.457C272.37 380.588 260.03 359.742 235.586 338.645C206.434 314.38 164.898 302.682 135.251 281.567C132.146 279.245 129.041 276.923 125.936 274.601C102.895 255.61 88.9263 237.771 68.7475 215.288C32.5302 173.417 -14.3527 114.769 -63.1884 64.8699C-94.5545 32.6121 -126.758 -1.68019 -169.428 -13.5224C-213.232 -25.5086 -267.682 -2.85739 -288.912 43.9325C-303.897 76.7341 -303.203 112.811 -294.644 146.673C-280.845 202.407 -256.472 260.769 -274.48 320.178C-277.765 330.044 -281.617 339.838 -287.071 348.785C-318.66 402.615 -381.661 417.112 -429.19 450.924C-466.36 477.697 -498.778 514.712 -514.609 560.259C-537.108 626.168 -523.516 697.942 -500.871 759.941C-489.278 792.902 -471.916 825.953 -448.434 849.498Z" stroke="black" stroke-opacity="0.46" stroke-width="0.3" stroke-miterlimit="10" stroke-linecap="round" stroke-linejoin="round"/>
<path d="M-436.269 829.13C-421.81 843.811 -404.292 853.742 -385.218 857.447C-357.076 862.304 -329.591 852.947 -300.901 846.954C-289.538 844.543 -278.175 842.131 -266.542 841.681C-209.044 839.987 -166.701 883.257 -115.799 864.669C-76.5556 850.381 -63.3589 828.934 -20.3272 827.33C14.5714 825.98 43.4518 833.499 75.8743 807.427C117.518 774.175 134.409 710.806 153.685 658.015C154.746 654.938 155.808 651.862 156.77 649.415C180.76 585.019 206.506 553.603 237.027 488.11C253.633 452.322 260.872 417.273 259.629 392.066C259.051 366.301 252.778 343.667 232.039 321.124C207.826 294.928 166.305 283.235 135.876 267.169C132.673 265.478 128.904 263.714 125.701 262.023C101.876 248.08 84.655 236.26 62.5574 218.682C22.5998 185.992 -24.0982 129.966 -69.7159 81.7846C-101.909 47.5106 -134.175 10.016 -178.431 -2.66663C-223.821 -15.4932 -281.948 8.60124 -301.863 58.099C-315.041 90.4678 -312.816 124.149 -303.493 156.805C-288.167 210.134 -262.54 264.127 -279.008 321.128C-281.725 331.06 -285.475 340.218 -290.261 348.603C-319.272 400.799 -378.677 418.309 -422.884 453.162C-457.106 479.648 -485.812 515.184 -500.204 558.96C-520.963 621.196 -509.613 688.793 -488.079 746.763C-474.86 776.702 -458.241 807.072 -436.269 829.13Z" stroke="black" stroke-opacity="0.46" stroke-width="0.3" stroke-miterlimit="10" stroke-linecap="round" stroke-linejoin="round"/>
<path d="M-423.936 808.925C-410.417 822.195 -395.074 831.204 -377.239 835.393C-352.138 841.147 -326.293 834.8 -299.61 830.484C-289.484 828.56 -278.792 826.708 -268.297 826.115C-215.822 823.148 -173.585 852.259 -128.073 831.077C-87.5884 812.466 -77.2314 790.673 -31.6805 791.32C4.04076 792.003 33.3516 804.068 67.7292 780.189C109.229 751.437 130.714 691.9 146.381 639.97C147.442 636.895 148.404 634.45 148.898 631.303C168.044 568.26 180.971 530.104 210.612 466.468C226.345 432.519 237.618 401.213 242.138 376.111C246.658 351.009 246.546 325.961 230.076 302.046C210.332 273.222 169.959 261.678 138.652 251.285C135.351 250.224 131.484 249.091 128.184 248.03C102.911 239.687 82.4418 233.879 59.0934 220.645C14.933 196.424 -30.6436 144.422 -73.5124 97.2574C-106.532 60.9711 -138.86 20.2794 -184.602 6.12817C-231.476 -8.16687 -293.373 17.9961 -312.071 70.8254C-323.344 102.131 -319.787 134.677 -309.503 164.868C-293.119 215.09 -265.772 265.42 -280.234 320.713C-282.85 330.009 -286.032 339.233 -290.815 347.612C-317.149 397.547 -372.49 418.765 -413.845 453.955C-444.553 480.226 -470.214 514.84 -482.97 555.586C-501.424 614.223 -492.314 677.643 -472.359 730.886C-460.843 760.591 -444.966 788.282 -423.936 808.925Z" stroke="black" stroke-opacity="0.46" stroke-width="0.3" stroke-miterlimit="10" stroke-linecap="round" stroke-linejoin="round"/>
<path d="M-410.948 788.976C-398.367 800.84 -384.627 809.001 -368.595 813.603C-345.864 819.697 -322.316 816.911 -298.202 814.197C-288.744 812.831 -279.285 811.466 -269.359 810.801C-221.994 807.189 -180.227 820.833 -140.193 797.682C-98.9276 774.045 -91.4062 751.9 -43.4282 755.424C-6.87831 758.139 22.2027 775.306 59.3053 752.424C100.768 727.529 126.185 672.363 139.285 622.051C140.345 618.977 140.74 616.46 141.234 613.315C156.112 551.678 156.328 506.146 183.767 445.462C198.633 413.341 214.605 385.21 224.221 360.764C233.837 336.318 240.449 308.924 227.11 283.488C211.729 252.66 171.932 241.191 140.408 235.906C137.009 235.474 133.044 234.971 129.645 234.54C103.021 231.16 79.7699 232.058 54.5029 223.717C6.70243 208.023 -38.3258 159.957 -78.3547 113.166C-112.106 74.2311 -144.6 30.9639 -191.834 15.3424C-240.201 -0.422885 -305.876 27.815 -322.698 83.4302C-332.168 114.311 -327.083 144.474 -316.036 173.468C-298.027 220.672 -269.623 267.912 -281.985 320.884C-283.935 329.62 -287.116 338.841 -291.232 346.661C-314.897 394.348 -366.754 419.207 -404.798 455.445C-432.567 481.436 -454.625 515.212 -465.749 552.941C-481.905 607.999 -475.501 666.563 -456.754 716.427C-446.175 744.72 -431.137 770.371 -410.948 788.976Z" stroke="black" stroke-opacity="0.46" stroke-width="0.3" stroke-miterlimit="10" stroke-linecap="round" stroke-linejoin="round"/>
<path d="M-398.411 769.092C-387.333 779.481 -374.627 786.869 -360.393 791.884C-340.127 798.948 -318.773 799.093 -296.656 798.051C-287.863 797.242 -279.637 796.362 -270.844 795.553C-228.012 791.366 -187.94 790.037 -152.144 764.425C-111.124 734.985 -104.835 713.326 -55.0871 720.283C-17.7021 725.029 11.3515 746.042 51.5545 725.48C93.088 703.805 122.343 653.622 132.979 604.283C133.374 601.767 133.868 598.622 134.829 596.177C145.445 535.928 132.388 482.941 158.765 425.334C172.767 395.03 192.776 370.622 208.056 346.897C223.336 323.171 235.539 293.281 226.462 266.463C215.442 233.624 176.213 222.228 143.899 221.975C140.402 222.173 136.338 222.298 132.841 222.496C104.861 224.077 78.9241 231.05 51.7351 227.599C-0.37721 220.983 -44.6661 175.579 -81.4926 130.481C-115.513 89.5895 -148.645 43.0358 -197.945 25.8693C-247.344 9.33192 -317.179 38.3221 -332.892 97.9237C-340.565 128.39 -334.05 156.807 -322.042 183.355C-302.505 228.183 -272.844 271.087 -283.21 322.385C-285.159 331.121 -287.576 339.155 -291.126 347.045C-312.227 393.13 -360.512 421.007 -395.155 457.674C-419.425 483.466 -438.354 515.711 -447.949 551.065C-462.279 601.86 -457.647 656.986 -440.475 702.156C-431.964 728.901 -417.664 751.89 -398.411 769.092Z" stroke="black" stroke-opacity="0.46" stroke-width="0.3" stroke-miterlimit="10" stroke-linecap="round" stroke-linejoin="round"/>
<path d="M-296.293 781.687C-251.322 782.264 -203.487 764.598 -165.375 731.583C-124.601 696.339 -119.544 675.167 -67.9277 684.928C-29.7079 691.705 -0.780307 717.191 42.0553 698.249C83.6594 679.793 117.319 634.664 124.826 586.856C134.505 525.21 104.509 462.376 130.884 404.774C144.022 376.287 168.732 355.044 189.109 331.967C209.486 308.891 228.314 277.277 222.563 247.676C215.903 212.826 177.808 201.574 144.607 206.983C111.407 212.392 79.2604 229.483 46.086 231.045C-9.77125 233.578 -53.4197 191.466 -87.5116 147.36C-122.269 103.811 -155.472 54.0429 -206.37 36.0326C-257.269 18.0223 -332.027 48.9511 -344.835 112.125C-361.343 191.511 -272.605 244.479 -286.182 323.595C-295.737 380.767 -350.967 416.1 -388.025 460.797C-458.52 545.519 -457.592 686.785 -386.491 749.063C-361.035 770.901 -329.171 781.363 -296.293 781.687Z" stroke="black" stroke-opacity="0.46" stroke-width="0.3" stroke-miterlimit="10" stroke-linecap="round" stroke-linejoin="round"/>
</g>
</svg>
