<svg width="21" height="21" viewBox="0 0 21 21" fill="none" xmlns="http://www.w3.org/2000/svg">
<circle cx="10.5" cy="10.5" r="10.5" fill="#FF9040"/>
<path d="M13.9331 14.976V16H6.07713V15.184L10.7331 10.624C11.3198 10.048 11.7145 9.552 11.9171 9.136C12.1305 8.70933 12.2371 8.28267 12.2371 7.856C12.2371 7.19467 12.0078 6.68267 11.5491 6.32C11.1011 5.94667 10.4558 5.76 9.61313 5.76C8.30113 5.76 7.28246 6.176 6.55713 7.008L5.74113 6.304C6.17846 5.792 6.73313 5.39733 7.40513 5.12C8.08779 4.84267 8.85579 4.704 9.70913 4.704C10.8505 4.704 11.7518 4.976 12.4131 5.52C13.0851 6.05333 13.4211 6.78933 13.4211 7.728C13.4211 8.304 13.2931 8.85867 13.0371 9.392C12.7811 9.92533 12.2958 10.5387 11.5811 11.232L7.77313 14.976H13.9331Z" fill="white"/>
</svg>
