<svg width="21" height="21" viewBox="0 0 21 21" fill="none" xmlns="http://www.w3.org/2000/svg">
<circle cx="10.5" cy="10.5" r="10.5" fill="#FF9040"/>
<path d="M10.1244 9.6C11.2977 9.664 12.1884 9.984 12.7964 10.56C13.415 11.1253 13.7244 11.8667 13.7244 12.784C13.7244 13.424 13.5697 13.9947 13.2604 14.496C12.951 14.9867 12.4924 15.376 11.8844 15.664C11.2764 15.952 10.535 16.096 9.66038 16.096C8.84971 16.096 8.08171 15.968 7.35638 15.712C6.64171 15.4453 6.06571 15.0933 5.62838 14.656L6.18838 13.744C6.56171 14.128 7.05771 14.4427 7.67638 14.688C8.29504 14.9227 8.95638 15.04 9.66038 15.04C10.5777 15.04 11.287 14.8427 11.7884 14.448C12.2897 14.0427 12.5404 13.488 12.5404 12.784C12.5404 12.0907 12.2897 11.5467 11.7884 11.152C11.287 10.7573 10.5297 10.56 9.51638 10.56H8.71638V9.712L11.8204 5.824H6.09238V4.8H13.2924V5.616L10.1244 9.6Z" fill="white"/>
</svg>
