<svg width="164" height="46" viewBox="0 0 164 46" fill="none" xmlns="http://www.w3.org/2000/svg">
<path d="M117.309 28.9776C116.685 28.9776 115.987 28.9549 115.216 28.9095C114.456 28.8641 113.781 28.8074 113.191 28.7394V27.3953C114.666 27.5428 115.897 27.6165 116.883 27.6165C117.496 27.6165 117.978 27.5938 118.329 27.5484C118.692 27.4917 118.999 27.3953 119.248 27.2592C119.475 27.1231 119.622 26.9246 119.691 26.6637C119.759 26.3915 119.793 26.0342 119.793 25.5919C119.793 25.0588 119.764 24.6845 119.708 24.469C119.651 24.2421 119.515 24.0777 119.299 23.9756C119.095 23.8735 118.738 23.7998 118.227 23.7544L115.335 23.4311C114.632 23.3517 114.099 23.1873 113.736 22.9377C113.384 22.6769 113.146 22.3423 113.021 21.9339C112.908 21.5143 112.851 20.9698 112.851 20.3006C112.851 19.3706 113.01 18.6673 113.327 18.191C113.656 17.7146 114.11 17.397 114.689 17.2382C115.278 17.0794 116.067 17 117.053 17C117.711 17 118.38 17.0284 119.061 17.0851C119.742 17.1418 120.28 17.2098 120.677 17.2892V18.5823C120.246 18.5142 119.713 18.4632 119.078 18.4291C118.443 18.3838 117.853 18.3611 117.309 18.3611C116.673 18.3611 116.163 18.3894 115.777 18.4462C115.392 18.5029 115.091 18.5993 114.876 18.7354C114.638 18.8715 114.484 19.053 114.416 19.2798C114.348 19.5067 114.314 19.8299 114.314 20.2496C114.314 20.7146 114.348 21.0549 114.416 21.2704C114.484 21.4746 114.615 21.6277 114.808 21.7298C115 21.8205 115.318 21.8886 115.76 21.9339L118.619 22.2572C119.299 22.3253 119.827 22.4443 120.201 22.6145C120.575 22.7846 120.847 23.0909 121.018 23.5332C121.176 23.9415 121.256 24.5937 121.256 25.4898C121.256 26.5219 121.097 27.2932 120.779 27.8036C120.462 28.3027 120.036 28.626 119.503 28.7734C118.97 28.9095 118.239 28.9776 117.309 28.9776Z" fill="black"/>
<path d="M124.112 17.1361H129.251C130.192 17.1361 130.907 17.2892 131.394 17.5955C131.882 17.9017 132.205 18.3157 132.364 18.8375C132.523 19.3592 132.602 20.0341 132.602 20.8621C132.602 21.6561 132.523 22.3196 132.364 22.8527C132.205 23.3744 131.876 23.7941 131.377 24.1117C130.89 24.4293 130.169 24.5881 129.217 24.5881H125.576V28.8415H124.112V17.1361ZM128.723 23.227C129.46 23.227 129.999 23.1532 130.339 23.0058C130.68 22.847 130.901 22.6088 131.003 22.2912C131.105 21.9736 131.156 21.4973 131.156 20.8621C131.156 20.2269 131.105 19.7505 131.003 19.4329C130.912 19.1154 130.697 18.8828 130.356 18.7354C130.028 18.5766 129.494 18.4972 128.757 18.4972H125.576V23.227H128.723Z" fill="black"/>
<path d="M142.442 28.8415L141.234 25.728H135.96L134.752 28.8415H133.272L137.695 17.1361H139.533L143.956 28.8415H142.442ZM138.631 18.7184H138.546L136.402 24.3499H140.775L138.631 18.7184Z" fill="black"/>
<path d="M153.239 28.7564C152.887 28.8244 152.445 28.8755 151.912 28.9095C151.39 28.9549 150.902 28.9776 150.449 28.9776C149.042 28.9776 148.016 28.8244 147.369 28.5182C146.723 28.212 146.286 27.6562 146.059 26.8509C145.844 26.0342 145.736 24.7469 145.736 22.9888C145.736 21.2421 145.844 19.9604 146.059 19.1437C146.286 18.3271 146.723 17.7656 147.369 17.4594C148.016 17.1531 149.042 17 150.449 17C150.914 17 151.401 17.0227 151.912 17.0681C152.422 17.1134 152.842 17.1758 153.171 17.2552V18.5312C152.32 18.4178 151.537 18.3611 150.823 18.3611C149.632 18.3611 148.798 18.4518 148.322 18.6333C147.857 18.8148 147.551 19.2061 147.403 19.8072C147.256 20.4084 147.182 21.4689 147.182 22.9888C147.182 24.5087 147.256 25.5692 147.403 26.1703C147.551 26.7715 147.857 27.1628 148.322 27.3443C148.798 27.5257 149.632 27.6165 150.823 27.6165C151.696 27.6165 152.502 27.5598 153.239 27.4463V28.7564Z" fill="black"/>
<path d="M155.913 28.8415V17.1361H163.535V18.4972H157.376V22.2572H162.719V23.6183H157.376V27.4804H163.535V28.8415H155.913Z" fill="black"/>
<path d="M71.2189 28.3481C71.2529 28.4048 71.2699 28.4785 71.2699 28.5692C71.2699 28.6486 71.2302 28.728 71.1508 28.8074C71.0827 28.8755 70.9977 28.9095 70.8956 28.9095H67.0165C66.6876 28.9095 66.455 28.7791 66.3189 28.5182L64.2433 24.8092V28.4501C64.2433 28.5749 64.1979 28.6827 64.1072 28.7734C64.0164 28.8641 63.9087 28.9095 63.7839 28.9095H60.5343C60.4096 28.9095 60.3018 28.8641 60.2111 28.7734C60.1203 28.6827 60.075 28.5749 60.075 28.4501V17.4594C60.075 17.3346 60.1203 17.2268 60.2111 17.1361C60.3018 17.0454 60.4096 17 60.5343 17H63.7839C63.9087 17 64.0164 17.0454 64.1072 17.1361C64.1979 17.2268 64.2433 17.3346 64.2433 17.4594V20.8281L66.1658 17.3743C66.2906 17.1248 66.5174 17 66.8464 17H70.6064C70.7084 17 70.7935 17.0397 70.8616 17.1191C70.941 17.1871 70.9807 17.2665 70.9807 17.3573C70.9807 17.4367 70.9636 17.5047 70.9296 17.5614L67.8672 22.6996L71.2189 28.3481Z" fill="#FF9040"/>
<path d="M76.636 25.5919H81.8761C82.0009 25.5919 82.1087 25.6372 82.1994 25.728C82.2901 25.8187 82.3355 25.9265 82.3355 26.0512V28.4501C82.3355 28.5749 82.2901 28.6827 82.1994 28.7734C82.1087 28.8641 82.0009 28.9095 81.8761 28.9095H73.0121C72.8873 28.9095 72.7795 28.8641 72.6888 28.7734C72.5981 28.6827 72.5527 28.5749 72.5527 28.4501V17.4594C72.5527 17.3346 72.5981 17.2268 72.6888 17.1361C72.7795 17.0454 72.8873 17 73.0121 17H81.74C81.8648 17 81.9726 17.0454 82.0633 17.1361C82.154 17.2268 82.1994 17.3346 82.1994 17.4594V19.8583C82.1994 19.9831 82.154 20.0908 82.0633 20.1815C81.9726 20.2723 81.8648 20.3177 81.74 20.3177H76.636V21.3895H81.3657C81.4905 21.3895 81.5983 21.4349 81.689 21.5256C81.7797 21.6164 81.8251 21.7241 81.8251 21.8489V24.0606C81.8251 24.1854 81.7797 24.2932 81.689 24.3839C81.5983 24.4746 81.4905 24.52 81.3657 24.52H76.636V25.5919Z" fill="#FF9040"/>
<path d="M91.1028 28.9095H87.7682C87.6434 28.9095 87.5356 28.8641 87.4449 28.7734C87.3542 28.6827 87.3088 28.5749 87.3088 28.4501V25.0985L83.4807 17.5274C83.4581 17.4821 83.4467 17.4197 83.4467 17.3403C83.4467 17.2609 83.4807 17.1871 83.5488 17.1191C83.6282 17.0397 83.7189 17 83.821 17H87.0196C87.3598 17 87.598 17.1418 87.7341 17.4253L89.4355 20.8451L91.1369 17.4253C91.273 17.1418 91.5112 17 91.8514 17H95.05C95.1521 17 95.2371 17.0397 95.3052 17.1191C95.3846 17.1871 95.4243 17.2609 95.4243 17.3403C95.4243 17.4197 95.4129 17.4821 95.3903 17.5274L91.5622 25.0985V28.4501C91.5622 28.5749 91.5168 28.6827 91.4261 28.7734C91.3353 28.8641 91.2276 28.9095 91.1028 28.9095Z" fill="#FF9040"/>
<path d="M96.7281 17H105.524C105.66 17 105.768 17.0454 105.847 17.1361C105.938 17.2268 105.983 17.3346 105.983 17.4594V19.7052C105.983 19.966 105.91 20.2553 105.762 20.5729L102.053 28.5182C101.906 28.7791 101.673 28.9095 101.356 28.9095H98.0722C97.9701 28.9095 97.8793 28.8755 97.7999 28.8074C97.7319 28.728 97.6978 28.6486 97.6978 28.5692C97.6978 28.4898 97.7092 28.4275 97.7319 28.3821L101.407 20.4878H96.7281C96.6033 20.4878 96.4956 20.4424 96.4048 20.3517C96.3141 20.2609 96.2687 20.1532 96.2687 20.0284V17.4594C96.2687 17.3346 96.3141 17.2268 96.4048 17.1361C96.4956 17.0454 96.6033 17 96.7281 17Z" fill="#FF9040"/>
<path d="M8.77901 46L0 46L-4.79679e-08 44.9026L8.77901 44.9026L8.77901 46Z" fill="black"/>
<path d="M5.11684 34.5014C4.50435 34.5014 4.0705 34.5354 3.8153 34.6035C3.56009 34.663 3.38996 34.7863 3.30489 34.9735C3.21982 35.1606 3.17729 35.4754 3.17729 35.9178C3.17729 36.3941 3.2581 36.7429 3.41973 36.9641C3.58136 37.1853 3.81104 37.3256 4.10878 37.3852C4.40652 37.4447 4.84462 37.4745 5.42308 37.4745L8.77901 37.4745L8.77901 38.5081L5.11684 38.5081C4.50435 38.5081 4.0705 38.5421 3.8153 38.6102C3.56009 38.6697 3.38996 38.793 3.30489 38.9802C3.21982 39.1673 3.17729 39.4821 3.17729 39.9245C3.17729 40.4008 3.26236 40.7496 3.43249 40.9708C3.59412 41.192 3.82806 41.3323 4.1343 41.3919C4.43204 41.4514 4.86163 41.4812 5.42308 41.4812L8.77901 41.4812L8.77901 42.5148L2.27131 42.5148L2.27131 41.596L3.19005 41.545L3.19005 41.4684C2.85828 41.3408 2.60733 41.1239 2.4372 40.8177C2.25855 40.5029 2.16923 40.0606 2.16923 39.4906C2.16923 38.9292 2.25005 38.5038 2.41168 38.2146C2.57331 37.9254 2.83276 37.7254 3.19005 37.6149L3.19005 37.5255C2.5095 37.2533 2.16923 36.577 2.16923 35.4967C2.16923 34.9267 2.25855 34.4971 2.4372 34.2079C2.61584 33.9187 2.8838 33.723 3.24109 33.6209C3.58987 33.5188 4.07901 33.4678 4.70851 33.4678L8.77901 33.4678L8.77901 34.5014L5.11684 34.5014Z" fill="black"/>
<path d="M2.27131 31.2499L2.27131 30.3312L3.19005 30.2801L3.19005 30.2036C2.79873 30.0334 2.53077 29.7655 2.38616 29.3997C2.24154 29.0254 2.16923 28.5788 2.16923 28.0599C2.16923 27.4133 2.26706 26.92 2.46272 26.5797C2.65837 26.2394 2.99439 26.0012 3.47077 25.8651C3.93865 25.7205 4.61919 25.6482 5.5124 25.6482C6.41412 25.6482 7.10317 25.7205 7.57955 25.8651C8.05593 26.0012 8.39195 26.2394 8.58761 26.5797C8.78327 26.9114 8.88109 27.3963 8.88109 28.0343C8.88109 28.5873 8.81304 29.0381 8.67693 29.3869C8.54082 29.7272 8.30263 29.9824 7.96236 30.1525L7.96236 30.2163L11.3311 30.2163L11.3311 31.2499L2.27131 31.2499ZM7.87304 28.4682C7.87304 27.9152 7.822 27.5239 7.71992 27.2943C7.61784 27.0561 7.40942 26.8987 7.09467 26.8221C6.77992 26.7371 6.25675 26.6945 5.52516 26.6945C4.79358 26.6945 4.27041 26.7371 3.95566 26.8221C3.64091 26.8987 3.43249 27.0561 3.33041 27.2943C3.21982 27.5239 3.16453 27.9152 3.16453 28.4682C3.16453 28.902 3.22407 29.2466 3.34317 29.5018C3.46227 29.757 3.64516 29.9356 3.89186 30.0377C4.07901 30.1143 4.29593 30.1653 4.54263 30.1908C4.78933 30.2078 5.11684 30.2163 5.52516 30.2163C5.942 30.2163 6.26951 30.2078 6.5077 30.1908C6.74589 30.1738 6.9458 30.1313 7.10743 30.0632C7.37964 29.9526 7.5753 29.7697 7.6944 29.5145C7.81349 29.2593 7.87304 28.9105 7.87304 28.4682Z" fill="black"/>
<path d="M2.27131 23.7109L2.27131 22.7922L3.50905 22.7412L3.50905 22.6646C2.99864 22.5115 2.64987 22.2563 2.46272 21.899C2.26706 21.5417 2.16923 21.0738 2.16923 20.4954L3.27937 20.4954C3.27937 21.0823 3.36869 21.5332 3.54733 21.8479C3.72598 22.1627 4.00245 22.3796 4.37675 22.4987C4.74254 22.6178 5.24019 22.6774 5.86969 22.6774L8.77901 22.6774L8.77901 23.7109L2.27131 23.7109Z" fill="black"/>
<path d="M8.88109 16.5103C8.88109 17.4205 8.79177 18.0713 8.61313 18.4626C8.42598 18.8539 8.11548 19.1049 7.68164 19.2155C7.23928 19.3175 6.52046 19.3686 5.52516 19.3686C4.52987 19.3686 3.8153 19.3175 3.38145 19.2155C2.9391 19.1049 2.6286 18.8539 2.44996 18.4626C2.26281 18.0713 2.16923 17.4205 2.16923 16.5103C2.16923 15.6086 2.26281 14.9621 2.44996 14.5707C2.6286 14.1794 2.9391 13.9327 3.38145 13.8307C3.8153 13.7201 4.52987 13.6648 5.52516 13.6648C6.52046 13.6648 7.23928 13.7201 7.68164 13.8307C8.11548 13.9327 8.42598 14.1794 8.61313 14.5707C8.79177 14.9621 8.88109 15.6086 8.88109 16.5103ZM7.93684 16.5103C7.93684 15.8893 7.88155 15.4597 7.77096 15.2215C7.66037 14.9833 7.46046 14.8387 7.17123 14.7877C6.87349 14.7281 6.3248 14.6983 5.52516 14.6983C4.72552 14.6983 4.18109 14.7281 3.89186 14.7877C3.59412 14.8387 3.38996 14.9833 3.27937 15.2215C3.16878 15.4597 3.11349 15.8893 3.11349 16.5103C3.11349 17.1313 3.16878 17.5651 3.27937 17.8118C3.38996 18.05 3.59412 18.1989 3.89186 18.2584C4.18109 18.3095 4.72552 18.335 5.52516 18.335C6.3248 18.335 6.87349 18.3095 7.17123 18.2584C7.46046 18.1989 7.66037 18.05 7.77096 17.8118C7.88155 17.5651 7.93684 17.1313 7.93684 16.5103Z" fill="black"/>
<path d="M8.77901 10.2146L2.27131 12.6136L2.27131 11.5289L7.63059 9.60215L7.63059 9.51282L2.27131 7.5988L2.27131 6.5397L8.77901 8.92585L8.77901 10.2146Z" fill="black"/>
<path d="M5.89521 -2.57688e-07L5.89521 4.45331C6.5162 4.45331 6.95856 4.41077 7.22227 4.32571C7.48598 4.24064 7.67313 4.05774 7.78372 3.77702C7.8858 3.48778 7.93684 3.00715 7.93684 2.33512C7.93684 1.68009 7.89005 0.986789 7.79648 0.255203L8.70245 0.255203C8.75349 0.52742 8.79602 0.880451 8.83005 1.3143C8.86408 1.74815 8.88109 2.16073 8.88109 2.55204C8.88109 3.42824 8.77901 4.07476 8.57485 4.49159C8.37068 4.89991 8.04317 5.16788 7.59231 5.29548C7.14145 5.42308 6.45666 5.48688 5.53792 5.48688C4.6362 5.48688 3.95991 5.43159 3.50905 5.321C3.05819 5.20191 2.72217 4.94245 2.501 4.54263C2.27982 4.1343 2.16923 3.49204 2.16923 2.61584C2.16923 1.79919 2.27982 1.20797 2.501 0.842171C2.71367 0.476379 3.04118 0.246696 3.48353 0.153122C3.91738 0.0510405 4.59792 -2.00982e-07 5.52516 -2.41513e-07L5.89521 -2.57688e-07ZM3.11348 2.64136C3.11348 3.1943 3.16453 3.59412 3.26661 3.84082C3.36018 4.07901 3.54308 4.24064 3.8153 4.32571C4.07901 4.40227 4.5086 4.4448 5.10408 4.45331L5.10407 0.995292L5.00199 0.995292C4.44055 0.995292 4.02797 1.04634 3.76425 1.14842C3.50054 1.24199 3.32616 1.39937 3.24109 1.62054C3.15602 1.84172 3.11348 2.182 3.11348 2.64136Z" fill="black"/>
<path d="M33.074 27.6367L36.5699 23.5581" stroke="black" stroke-width="2" stroke-linecap="round" stroke-linejoin="round"/>
<path d="M33.074 27.6367L29.578 23.5581" stroke="black" stroke-width="2" stroke-linecap="round" stroke-linejoin="round"/>
<circle cx="40.6485" cy="18.8968" r="3.49594" fill="#FF9040"/>
<circle cx="25.4995" cy="18.8968" r="3.49594" fill="#FF9040"/>
<path d="M20.7148 9.86574C23.7066 5.40573 28.1339 2.58252 33.0742 2.58252C38.0144 2.58252 42.4418 5.40573 45.4335 9.86574M17.6338 16.7672C17.0672 18.8971 16.7598 21.1815 16.7598 23.5582C16.7598 35.1427 29.2869 44.5338 33.0742 44.5338C36.8614 44.5338 49.3886 35.1427 49.3886 23.5582C49.3886 21.1066 49.1158 19.0445 48.5146 16.8576" stroke="black" stroke-width="2"/>
<path d="M13.9793 3.49362C20.2556 11.6141 25.0596 11.634 28.7755 13.6634C32.4914 15.6927 32.7561 19.7299 30.4002 22.5427C28.0442 25.3554 23.4026 25.9812 20.3039 22.7521C19.3883 21.9853 17.6336 19.4799 17.6336 16.858" stroke="#FF9040" stroke-width="2" stroke-linecap="round" stroke-linejoin="round"/>
<path d="M52.1217 3.41549C45.8455 11.5359 41.0415 11.5559 37.3256 13.5852C33.6096 15.6146 33.345 19.6518 35.7009 22.4645C38.0568 25.2773 42.6985 25.9031 45.7972 22.674C46.7127 21.9071 48.4674 19.4018 48.4674 16.7799" stroke="#FF9040" stroke-width="2" stroke-linecap="round" stroke-linejoin="round"/>
</svg>
