<svg width="111" height="31" viewBox="0 0 111 31" fill="none" xmlns="http://www.w3.org/2000/svg">
<path d="M79.0559 19.5801C78.6355 19.5801 78.1654 19.5649 77.6456 19.5343C77.1335 19.5037 76.6787 19.4655 76.2812 19.4196V18.5138C77.2749 18.6132 78.1042 18.6629 78.7692 18.6629C79.182 18.6629 79.5069 18.6476 79.7438 18.617C79.9884 18.5788 80.1948 18.5138 80.363 18.4221C80.5159 18.3304 80.6152 18.1966 80.6611 18.0208C80.7069 17.8374 80.7299 17.5966 80.7299 17.2985C80.7299 16.9392 80.7108 16.687 80.6725 16.5417C80.6343 16.3889 80.5426 16.278 80.3974 16.2092C80.2598 16.1404 80.019 16.0908 79.675 16.0602L77.7259 15.8423C77.252 15.7888 76.8927 15.678 76.6481 15.5098C76.4111 15.334 76.2506 15.1085 76.1665 14.8333C76.0901 14.5505 76.0519 14.1836 76.0519 13.7326C76.0519 13.1059 76.1589 12.6319 76.3729 12.3109C76.5946 11.9899 76.9003 11.7758 77.2902 11.6688C77.6877 11.5618 78.2189 11.5083 78.8839 11.5083C79.3272 11.5083 79.7782 11.5274 80.2369 11.5656C80.6955 11.6038 81.0586 11.6497 81.3261 11.7032V12.5746C81.0356 12.5287 80.6764 12.4943 80.2483 12.4714C79.8203 12.4408 79.4228 12.4256 79.0559 12.4256C78.6278 12.4256 78.2839 12.4447 78.024 12.4829C77.7641 12.5211 77.5615 12.5861 77.4163 12.6778C77.2558 12.7695 77.1526 12.8918 77.1067 13.0447C77.0609 13.1976 77.0379 13.4154 77.0379 13.6982C77.0379 14.0116 77.0609 14.241 77.1067 14.3862C77.1526 14.5238 77.2405 14.627 77.3704 14.6958C77.5004 14.7569 77.7144 14.8028 78.0125 14.8333L79.9387 15.0512C80.3974 15.0971 80.7528 15.1773 81.0051 15.292C81.2573 15.4066 81.4408 15.613 81.5554 15.9111C81.6624 16.1863 81.7159 16.6258 81.7159 17.2297C81.7159 17.9253 81.6089 18.445 81.3949 18.789C81.1809 19.1253 80.8942 19.3432 80.535 19.4426C80.1757 19.5343 79.6827 19.5801 79.0559 19.5801Z" fill="black"/>
<path d="M83.6411 11.6H87.1037C87.7382 11.6 88.2197 11.7032 88.5484 11.9096C88.8771 12.116 89.0949 12.395 89.2019 12.7466C89.309 13.0982 89.3625 13.553 89.3625 14.111C89.3625 14.6461 89.309 15.0932 89.2019 15.4525C89.0949 15.8041 88.8733 16.0869 88.5369 16.301C88.2083 16.515 87.7229 16.622 87.0808 16.622H84.6271V19.4884H83.6411V11.6ZM86.7483 15.7047C87.2451 15.7047 87.6082 15.6551 87.8375 15.5557C88.0668 15.4487 88.2159 15.2882 88.2847 15.0741C88.3535 14.8601 88.3879 14.5391 88.3879 14.111C88.3879 13.683 88.3535 13.3619 88.2847 13.1479C88.2235 12.9339 88.0783 12.7772 87.849 12.6778C87.6273 12.5708 87.2681 12.5173 86.7712 12.5173H84.6271V15.7047H86.7483Z" fill="black"/>
<path d="M95.9937 19.4884L95.1796 17.3902H91.6252L90.8112 19.4884H89.8137L92.7947 11.6H94.033L97.0141 19.4884H95.9937ZM93.4253 12.6663H93.368L91.9233 16.4615H94.87L93.4253 12.6663Z" fill="black"/>
<path d="M103.27 19.4311C103.033 19.477 102.735 19.5113 102.375 19.5343C102.024 19.5649 101.695 19.5801 101.389 19.5801C100.442 19.5801 99.7497 19.477 99.314 19.2706C98.8783 19.0642 98.5841 18.6896 98.4312 18.1469C98.286 17.5966 98.2133 16.729 98.2133 15.5442C98.2133 14.3671 98.286 13.5033 98.4312 12.953C98.5841 12.4026 98.8783 12.0243 99.314 11.8179C99.7497 11.6115 100.442 11.5083 101.389 11.5083C101.703 11.5083 102.031 11.5236 102.375 11.5542C102.719 11.5847 103.002 11.6268 103.224 11.6803V12.5402C102.651 12.4638 102.123 12.4256 101.642 12.4256C100.839 12.4256 100.277 12.4867 99.9561 12.609C99.6427 12.7313 99.4363 12.995 99.337 13.4001C99.2376 13.8053 99.1879 14.52 99.1879 15.5442C99.1879 16.5685 99.2376 17.2832 99.337 17.6883C99.4363 18.0934 99.6427 18.3571 99.9561 18.4794C100.277 18.6017 100.839 18.6629 101.642 18.6629C102.23 18.6629 102.773 18.6247 103.27 18.5482V19.4311Z" fill="black"/>
<path d="M105.072 19.4884V11.6H110.209V12.5173H106.058V15.0512H109.658V15.9685H106.058V18.5712H110.209V19.4884H105.072Z" fill="black"/>
<path d="M47.9954 19.1559C48.0183 19.1941 48.0298 19.2438 48.0298 19.305C48.0298 19.3585 48.003 19.412 47.9495 19.4655C47.9036 19.5113 47.8463 19.5343 47.7775 19.5343H45.1633C44.9417 19.5343 44.785 19.4464 44.6933 19.2706L43.2944 16.771V19.2247C43.2944 19.3088 43.2639 19.3814 43.2027 19.4426C43.1416 19.5037 43.069 19.5343 42.9849 19.5343H40.7949C40.7108 19.5343 40.6382 19.5037 40.5771 19.4426C40.5159 19.3814 40.4854 19.3088 40.4854 19.2247V11.8179C40.4854 11.7338 40.5159 11.6612 40.5771 11.6C40.6382 11.5389 40.7108 11.5083 40.7949 11.5083H42.9849C43.069 11.5083 43.1416 11.5389 43.2027 11.6C43.2639 11.6612 43.2944 11.7338 43.2944 11.8179V14.0881L44.5901 11.7605C44.6741 11.5924 44.827 11.5083 45.0487 11.5083H47.5826C47.6514 11.5083 47.7087 11.5351 47.7546 11.5886C47.8081 11.6344 47.8349 11.6879 47.8349 11.7491C47.8349 11.8026 47.8234 11.8484 47.8005 11.8867L45.7366 15.3493L47.9954 19.1559Z" fill="black"/>
<path d="M51.646 17.2985H55.1775C55.2615 17.2985 55.3342 17.329 55.3953 17.3902C55.4565 17.4513 55.487 17.524 55.487 17.608V19.2247C55.487 19.3088 55.4565 19.3814 55.3953 19.4426C55.3342 19.5037 55.2615 19.5343 55.1775 19.5343H49.2038C49.1198 19.5343 49.0471 19.5037 48.986 19.4426C48.9248 19.3814 48.8943 19.3088 48.8943 19.2247V11.8179C48.8943 11.7338 48.9248 11.6612 48.986 11.6C49.0471 11.5389 49.1198 11.5083 49.2038 11.5083H55.0857C55.1698 11.5083 55.2424 11.5389 55.3036 11.6C55.3647 11.6612 55.3953 11.7338 55.3953 11.8179V13.4345C55.3953 13.5186 55.3647 13.5912 55.3036 13.6524C55.2424 13.7135 55.1698 13.7441 55.0857 13.7441H51.646V14.4664H54.8335C54.9176 14.4664 54.9902 14.497 55.0513 14.5582C55.1125 14.6193 55.1431 14.6919 55.1431 14.776V16.2666C55.1431 16.3506 55.1125 16.4233 55.0513 16.4844C54.9902 16.5456 54.9176 16.5761 54.8335 16.5761H51.646V17.2985Z" fill="black"/>
<path d="M61.3954 19.5343H59.1482C59.0641 19.5343 58.9915 19.5037 58.9303 19.4426C58.8692 19.3814 58.8386 19.3088 58.8386 19.2247V16.966L56.2588 11.8637C56.2435 11.8332 56.2359 11.7911 56.2359 11.7376C56.2359 11.6841 56.2588 11.6344 56.3047 11.5886C56.3582 11.5351 56.4193 11.5083 56.4881 11.5083H58.6437C58.873 11.5083 59.0335 11.6038 59.1252 11.7949L60.2718 14.0995L61.4184 11.7949C61.5101 11.6038 61.6706 11.5083 61.8999 11.5083H64.0555C64.1243 11.5083 64.1816 11.5351 64.2275 11.5886C64.281 11.6344 64.3077 11.6841 64.3077 11.7376C64.3077 11.7911 64.3001 11.8332 64.2848 11.8637L61.705 16.966V19.2247C61.705 19.3088 61.6744 19.3814 61.6133 19.4426C61.5521 19.5037 61.4795 19.5343 61.3954 19.5343Z" fill="black"/>
<path d="M65.1864 11.5083H71.1141C71.2059 11.5083 71.2785 11.5389 71.332 11.6C71.3931 11.6612 71.4237 11.7338 71.4237 11.8179V13.3313C71.4237 13.5072 71.374 13.7021 71.2746 13.9161L68.7751 19.2706C68.6758 19.4464 68.5191 19.5343 68.305 19.5343H66.0922C66.0234 19.5343 65.9622 19.5113 65.9087 19.4655C65.8628 19.412 65.8399 19.3585 65.8399 19.305C65.8399 19.2515 65.8476 19.2094 65.8628 19.1788L68.3394 13.8588H65.1864C65.1023 13.8588 65.0297 13.8282 64.9685 13.767C64.9074 13.7059 64.8768 13.6333 64.8768 13.5492V11.8179C64.8768 11.7338 64.9074 11.6612 64.9685 11.6C65.0297 11.5389 65.1023 11.5083 65.1864 11.5083Z" fill="black"/>
<path d="M5.91629 31L0 31L-3.23262e-08 30.2605L5.91629 30.2605L5.91629 31Z" fill="black"/>
<path d="M3.4483 23.2509C3.03554 23.2509 2.74316 23.2739 2.57118 23.3197C2.39919 23.3598 2.28454 23.443 2.22721 23.5691C2.16988 23.6952 2.14122 23.9073 2.14122 24.2054C2.14122 24.5265 2.19568 24.7615 2.3046 24.9106C2.41353 25.0596 2.56831 25.1542 2.76896 25.1944C2.96961 25.2345 3.26485 25.2546 3.65469 25.2546L5.91629 25.2546L5.91629 25.9511L3.4483 25.9511C3.03554 25.9511 2.74316 25.974 2.57118 26.0199C2.39919 26.06 2.28454 26.1431 2.22721 26.2693C2.16988 26.3954 2.14122 26.6075 2.14122 26.9056C2.14122 27.2266 2.19854 27.4617 2.3132 27.6107C2.42212 27.7598 2.57978 27.8544 2.78616 27.8945C2.98681 27.9347 3.27632 27.9547 3.65469 27.9547L5.91629 27.9547L5.91629 28.6513L1.53067 28.6513L1.53067 28.0321L2.14981 27.9977L2.14981 27.9461C1.92623 27.8601 1.75712 27.7139 1.64246 27.5076C1.52207 27.2954 1.46187 26.9973 1.46187 26.6132C1.46187 26.2349 1.51634 25.9482 1.62526 25.7533C1.73418 25.5584 1.90904 25.4237 2.14981 25.3491L2.14981 25.2889C1.69119 25.1055 1.46187 24.6497 1.46187 23.9217C1.46187 23.5376 1.52207 23.2481 1.64246 23.0531C1.76285 22.8582 1.94343 22.7264 2.18421 22.6576C2.41926 22.5888 2.7489 22.5544 3.17313 22.5544L5.91629 22.5544L5.91629 23.2509L3.4483 23.2509Z" fill="black"/>
<path d="M1.53067 21.0597L1.53067 20.4406L2.14981 20.4062L2.14981 20.3546C1.8861 20.2399 1.70552 20.0593 1.60806 19.8128C1.5106 19.5606 1.46187 19.2596 1.46187 18.9099C1.46187 18.4742 1.5278 18.1417 1.65966 17.9124C1.79151 17.6831 2.01796 17.5226 2.339 17.4308C2.6543 17.3334 3.11293 17.2846 3.71488 17.2846C4.32256 17.2846 4.78692 17.3334 5.10796 17.4308C5.429 17.5226 5.65545 17.6831 5.7873 17.9124C5.91916 18.136 5.98509 18.4627 5.98509 18.8927C5.98509 19.2653 5.93922 19.5692 5.8475 19.8042C5.75577 20.0335 5.59525 20.2055 5.36594 20.3202L5.36594 20.3632L7.63614 20.3632L7.63614 21.0597L1.53067 21.0597ZM5.30574 19.1851C5.30574 18.8125 5.27135 18.5487 5.20255 18.394C5.13376 18.2334 4.9933 18.1274 4.78119 18.0758C4.56907 18.0185 4.2165 17.9898 3.72348 17.9898C3.23046 17.9898 2.87789 18.0185 2.66577 18.0758C2.45366 18.1274 2.3132 18.2334 2.24441 18.394C2.16988 18.5487 2.13262 18.8125 2.13262 19.1851C2.13262 19.4775 2.17275 19.7096 2.25301 19.8816C2.33327 20.0536 2.45652 20.174 2.62277 20.2428C2.7489 20.2944 2.89508 20.3288 3.06134 20.346C3.22759 20.3575 3.4483 20.3632 3.72348 20.3632C4.00439 20.3632 4.2251 20.3575 4.38562 20.346C4.54614 20.3345 4.68086 20.3059 4.78979 20.26C4.97324 20.1855 5.10509 20.0622 5.18535 19.8902C5.26561 19.7182 5.30574 19.4832 5.30574 19.1851Z" fill="black"/>
<path d="M1.53067 15.9791L1.53067 15.36L2.3648 15.3256L2.3648 15.274C2.02083 15.1708 1.78578 14.9988 1.65966 14.758C1.5278 14.5172 1.46187 14.2019 1.46187 13.8121L2.21001 13.8121C2.21001 14.2077 2.2702 14.5115 2.39059 14.7236C2.51098 14.9357 2.6973 15.0819 2.94955 15.1622C3.19606 15.2424 3.53143 15.2826 3.95566 15.2826L5.91629 15.2826L5.91629 15.9791L1.53067 15.9791Z" fill="black"/>
<path d="M5.98509 11.1265C5.98509 11.7399 5.92489 12.1785 5.8045 12.4422C5.67838 12.7059 5.46913 12.875 5.17676 12.9495C4.87865 13.0183 4.39422 13.0527 3.72348 13.0527C3.05274 13.0527 2.57118 13.0183 2.2788 12.9495C1.9807 12.875 1.77145 12.7059 1.65106 12.4422C1.52493 12.1785 1.46187 11.7399 1.46187 11.1265C1.46187 10.5188 1.52493 10.0831 1.65106 9.81941C1.77145 9.5557 1.9807 9.38945 2.2788 9.32066C2.57118 9.24613 3.05274 9.20887 3.72348 9.20887C4.39422 9.20887 4.87865 9.24613 5.17675 9.32066C5.46913 9.38945 5.67838 9.5557 5.8045 9.81941C5.92489 10.0831 5.98509 10.5188 5.98509 11.1265ZM5.34874 11.1265C5.34874 10.708 5.31148 10.4185 5.23695 10.258C5.16242 10.0975 5.0277 10 4.83278 9.9656C4.63213 9.92547 4.26237 9.90541 3.72348 9.90541C3.18459 9.90541 2.81769 9.92547 2.62277 9.9656C2.42212 10 2.28454 10.0975 2.21001 10.258C2.13548 10.4185 2.09822 10.708 2.09822 11.1265C2.09822 11.545 2.13548 11.8374 2.21001 12.0036C2.28454 12.1641 2.42212 12.2645 2.62277 12.3046C2.81769 12.339 3.18459 12.3562 3.72348 12.3562C4.26237 12.3562 4.63213 12.339 4.83278 12.3046C5.0277 12.2645 5.16242 12.1641 5.23695 12.0036C5.31148 11.8374 5.34874 11.545 5.34874 11.1265Z" fill="black"/>
<path d="M5.91629 6.88378L1.53067 8.50044L1.53067 7.7695L5.14236 6.47101L5.14236 6.41082L1.53067 5.12093L1.53067 4.40719L5.91629 6.01525L5.91629 6.88378Z" fill="black"/>
<path d="M3.97286 -1.73659e-07L3.97286 3.00114C4.39135 3.00114 4.68946 2.97248 4.86718 2.91515C5.0449 2.85782 5.17102 2.73456 5.24555 2.54538C5.31434 2.35046 5.34874 2.02656 5.34874 1.57366C5.34874 1.13223 5.31721 0.665008 5.25415 0.171983L5.86469 0.171983C5.89909 0.355434 5.92776 0.593347 5.95069 0.885721C5.97362 1.1781 5.98508 1.45614 5.98508 1.71985C5.98508 2.31033 5.91629 2.74603 5.7787 3.02694C5.64111 3.30211 5.4204 3.4827 5.11656 3.56869C4.81272 3.65468 4.35122 3.69768 3.73208 3.69768C3.1244 3.69768 2.66864 3.66042 2.3648 3.58589C2.06095 3.50563 1.83451 3.33078 1.68545 3.06134C1.5364 2.78616 1.46187 2.35333 1.46187 1.76285C1.46187 1.2125 1.5364 0.814062 1.68545 0.567549C1.82878 0.321037 2.04949 0.166252 2.3476 0.103191C2.63997 0.034397 3.0986 -1.35444e-07 3.72348 -1.62758e-07L3.97286 -1.73659e-07ZM2.09822 1.78005C2.09822 2.15268 2.13262 2.42212 2.20141 2.58838C2.26447 2.7489 2.38773 2.85782 2.57118 2.91515C2.7489 2.96674 3.0384 2.99541 3.4397 3.00114L3.4397 0.67074L3.37091 0.67074C2.99254 0.67074 2.7145 0.705137 2.53678 0.773931C2.35906 0.836992 2.24154 0.94305 2.18421 1.0921C2.12688 1.24116 2.09822 1.47047 2.09822 1.78005Z" fill="black"/>
<path fill-rule="evenodd" clip-rule="evenodd" d="M25.1331 15.1483C25.4476 15.4179 25.484 15.8914 25.2144 16.2059L22.8585 18.9545C22.5889 19.269 22.1154 19.3054 21.8009 19.0359C21.4864 18.7663 21.45 18.2928 21.7196 17.9783L24.0755 15.2297C24.3451 14.9152 24.8186 14.8788 25.1331 15.1483Z" fill="url(#paint0_linear)"/>
<path fill-rule="evenodd" clip-rule="evenodd" d="M19.445 15.1483C19.1305 15.4179 19.0941 15.8914 19.3636 16.2059L21.7196 18.9545C21.9892 19.269 22.4626 19.3054 22.7771 19.0359C23.0916 18.7663 23.1281 18.2928 22.8585 17.9783L20.5025 15.2297C20.233 14.9152 19.7595 14.8788 19.445 15.1483Z" fill="url(#paint1_linear)"/>
<circle cx="27.3936" cy="12.5764" r="2.35596" fill="black"/>
<circle cx="17.1845" cy="12.5764" r="2.35596" fill="black"/>
<path fill-rule="evenodd" clip-rule="evenodd" d="M22.2891 2.33203C19.2658 2.33203 16.4941 4.05879 14.5828 6.90809L13.3371 6.07248C15.4582 2.91046 18.6538 0.832031 22.2891 0.832031C25.9244 0.832031 29.12 2.91046 31.2411 6.07248L29.9954 6.90809C28.0841 4.05879 25.3124 2.33203 22.2891 2.33203ZM12.6084 11.3341C12.2435 12.706 12.0446 14.1807 12.0446 15.7178C12.0446 19.3542 14.0188 22.7122 16.3786 25.1968C17.5518 26.4321 18.7971 27.4259 19.8905 28.1058C20.4373 28.4458 20.9361 28.7011 21.3602 28.8692C21.7959 29.0418 22.1057 29.1036 22.2891 29.1036C22.4725 29.1036 22.7823 29.0418 23.218 28.8692C23.6421 28.7011 24.1409 28.4458 24.6877 28.1058C25.7811 27.4259 27.0265 26.4321 28.1997 25.1968C30.5595 22.7122 32.5336 19.3542 32.5336 15.7178C32.5336 14.1287 32.3577 12.8062 31.9714 11.401L33.4178 11.0034C33.8418 12.5458 34.0336 14.0026 34.0336 15.7178C34.0336 19.8884 31.7866 23.5983 29.2873 26.2298C28.0309 27.5526 26.6871 28.6289 25.4798 29.3796C24.8762 29.7549 24.2967 30.0551 23.7707 30.2636C23.2561 30.4676 22.7438 30.6036 22.2891 30.6036C21.8344 30.6036 21.3221 30.4676 20.8076 30.2636C20.2815 30.0551 19.702 29.7549 19.0984 29.3796C17.8911 28.6289 16.5473 27.5526 15.2909 26.2298C12.7916 23.5983 10.5446 19.8884 10.5446 15.7178C10.5446 14.0516 10.7601 12.4473 11.1588 10.9485L12.6084 11.3341Z" fill="url(#paint2_linear)"/>
<path fill-rule="evenodd" clip-rule="evenodd" d="M20.7321 11.9518C20.6097 11.1151 20.0949 10.2875 19.0328 9.70752C18.4998 9.41641 17.8969 9.18406 17.2305 8.92722C15.0419 8.0837 12.1676 6.97591 8.82754 2.6544C8.57424 2.32667 8.63458 1.85564 8.96231 1.60234C9.29005 1.34904 9.76107 1.40937 10.0144 1.73711C13.0731 5.69457 15.4692 6.62249 17.6198 7.45534C18.3535 7.73946 19.0587 8.01253 19.7518 8.39104C21.1939 9.17863 22.0204 10.3952 22.2163 11.7347C22.4099 13.0587 21.9766 14.4229 21.0621 15.5147C19.2168 17.7179 15.5897 18.2127 13.1689 15.7214C12.7718 15.3777 12.2823 14.7541 11.8885 14.0066C11.4798 13.231 11.1336 12.2456 11.1336 11.2022C11.1336 10.788 11.4694 10.4522 11.8836 10.4522C12.2979 10.4522 12.6336 10.788 12.6336 11.2022C12.6336 11.9258 12.8787 12.668 13.2156 13.3075C13.5564 13.9544 13.9503 14.4198 14.1647 14.5993C14.1856 14.6168 14.2055 14.6354 14.2243 14.655C15.98 16.4846 18.589 16.1314 19.9122 14.5516C20.5854 13.7478 20.8567 12.8039 20.7321 11.9518Z" fill="url(#paint3_linear)"/>
<path fill-rule="evenodd" clip-rule="evenodd" d="M23.8144 11.8993C23.9368 11.0626 24.4516 10.235 25.5137 9.65503C26.0467 9.36392 26.6496 9.13157 27.316 8.87473C29.5046 8.03121 32.3789 6.92342 35.719 2.60191C35.9723 2.27418 35.9119 1.80315 35.5842 1.54985C35.2565 1.29654 34.7854 1.35688 34.5321 1.68462C31.4734 5.64208 29.0773 6.57 26.9267 7.40285C26.193 7.68697 25.4878 7.96004 24.7947 8.33855C23.3526 9.12614 22.5261 10.3427 22.3302 11.6822C22.1366 13.0062 22.5699 14.3704 23.4844 15.4622C25.3297 17.6654 28.9568 18.1602 31.3776 15.6689C31.7747 15.3252 32.2642 14.7017 32.658 13.9541C33.0667 13.1785 33.4129 12.1931 33.4129 11.1497C33.4129 10.7355 33.0771 10.3997 32.6629 10.3997C32.2486 10.3997 31.9129 10.7355 31.9129 11.1497C31.9129 11.8733 31.6678 12.6155 31.3309 13.255C30.9901 13.9019 30.5962 14.3673 30.3818 14.5468C30.3609 14.5643 30.341 14.5829 30.3222 14.6025C28.5665 16.4321 25.9575 16.0789 24.6343 14.4991C23.9611 13.6953 23.6898 12.7514 23.8144 11.8993Z" fill="url(#paint4_linear)"/>
<defs>
<linearGradient id="paint0_linear" x1="23.467" y1="15.7178" x2="23.467" y2="18.4664" gradientUnits="userSpaceOnUse">
<stop stop-color="#AED762"/>
<stop offset="1" stop-color="#83B91E"/>
</linearGradient>
<linearGradient id="paint1_linear" x1="21.1111" y1="15.7178" x2="21.1111" y2="18.4664" gradientUnits="userSpaceOnUse">
<stop stop-color="#AED762"/>
<stop offset="1" stop-color="#83B91E"/>
</linearGradient>
<linearGradient id="paint2_linear" x1="22.2891" y1="1.58203" x2="22.2891" y2="29.8536" gradientUnits="userSpaceOnUse">
<stop stop-color="#AED762"/>
<stop offset="1" stop-color="#83B91E"/>
</linearGradient>
<linearGradient id="paint3_linear" x1="16.6314" y1="6.6119" x2="11.1812" y2="13.1189" gradientUnits="userSpaceOnUse">
<stop stop-color="#AED762"/>
<stop offset="1" stop-color="#83B91E"/>
</linearGradient>
<linearGradient id="paint4_linear" x1="27.9152" y1="6.55941" x2="33.3653" y2="13.0665" gradientUnits="userSpaceOnUse">
<stop stop-color="#AED762"/>
<stop offset="1" stop-color="#83B91E"/>
</linearGradient>
</defs>
</svg>
