<svg width="1440" height="533" viewBox="0 0 1440 533" fill="none" xmlns="http://www.w3.org/2000/svg">
<mask id="mask0" mask-type="alpha" maskUnits="userSpaceOnUse" x="0" y="0" width="1440" height="533">
<rect width="1440" height="533" fill="#C4C4C4"/>
</mask>
<g mask="url(#mask0)">
<path d="M825.037 291.378C844.941 263.703 857.005 233.02 853.386 198.727C846.148 131.344 779.197 81.4084 773.165 14.0257C764.721 -81.6338 879.321 -149.618 885.956 -245.879C890.781 -313.864 836.497 -374.027 773.768 -399.897C703.198 -429.377 616.946 -403.507 553.011 -442.011C478.219 -487.134 481.235 -611.671 396.792 -639.948C348.539 -656.192 296.065 -621.298 272.541 -576.175C249.621 -531.053 247.811 -478.711 243.589 -428.174C238.161 -362.596 235.145 -307.847 170.004 -272.351C125.37 -248.286 73.4979 -241.668 25.245 -225.424C-60.4039 -195.944 -133.99 -132.773 -175.608 -52.7555C-208.782 11.0174 -216.02 101.864 -156.91 142.775C-121.323 167.442 -74.2769 165.035 -32.6587 154.206C46.3554 133.75 133.814 95.8475 213.431 140.97C281.588 180.076 284.001 269.719 320.794 333.492C352.158 388.241 401.015 435.77 462.537 452.014C549.392 474.274 638.057 429.753 715.261 384.029C754.467 359.362 797.895 328.679 825.037 291.378Z" stroke="black" stroke-width="0.3" stroke-miterlimit="10" stroke-linecap="round" stroke-linejoin="round"/>
<path d="M804.529 281.752C823.227 255.882 834.687 226.402 831.672 193.914C827.449 148.19 795.482 110.888 774.975 69.9774C767.134 53.7333 760.499 36.8876 758.689 18.237C750.245 -72.0078 855.798 -137.586 855.798 -227.229C855.798 -261.522 841.925 -291.002 822.624 -319.88C804.529 -348.157 779.8 -371.62 748.435 -386.661C686.31 -416.743 607.899 -398.694 546.376 -425.767C542.757 -427.572 539.741 -428.776 536.123 -430.58C463.14 -470.89 460.727 -580.989 379.301 -608.062C332.857 -623.704 282.795 -593.623 259.875 -554.517C236.351 -515.411 232.129 -468.483 226.098 -422.158C218.86 -366.808 215.241 -317.474 171.813 -281.977C167.591 -278.368 162.163 -274.758 156.734 -271.75C116.925 -247.083 71.0851 -238.66 27.6574 -221.213C-49.5472 -189.326 -118.911 -126.756 -161.132 -50.3491C-178.624 -19.0642 -191.893 17.6353 -192.497 53.7333C-193.1 93.441 -178.021 131.344 -144.244 151.799C-109.26 173.458 -64.023 170.45 -24.2143 159.019C40.9271 140.368 110.894 109.083 179.051 127.734C190.511 130.742 201.368 135.555 212.225 141.572C277.97 178.271 284.001 263.703 320.191 323.866C351.555 375.005 398.602 419.526 457.108 434.566C540.345 455.623 625.39 414.111 698.373 370.192C737.579 347.33 778.593 317.85 804.529 281.752Z" stroke="black" stroke-width="0.3" stroke-miterlimit="10" stroke-linecap="round" stroke-linejoin="round"/>
<path d="M784.022 272.126C802.117 247.459 812.371 219.784 809.958 189.101C806.339 146.385 777.991 110.287 759.293 71.7824C752.055 56.1399 746.023 39.8959 744.214 23.0502C735.769 -62.3816 831.672 -124.951 825.64 -208.578C823.228 -242.871 807.546 -269.945 790.657 -301.229C774.372 -331.311 754.468 -355.978 723.706 -372.824C665.803 -404.71 590.408 -390.271 530.695 -414.938C527.076 -416.141 524.06 -417.946 521.044 -419.751C449.871 -455.849 442.03 -551.508 363.619 -577.379C318.985 -591.818 271.938 -567.752 248.415 -534.061C224.892 -500.37 218.257 -460.06 209.813 -416.743C200.162 -365.604 195.94 -316.872 157.941 -281.977C153.719 -278.368 149.497 -274.758 144.671 -271.148C109.688 -245.879 69.8791 -235.652 31.8799 -217.001C-36.8805 -182.708 -102.022 -120.74 -144.243 -47.9425C-163.544 -14.8528 -179.83 21.8467 -181.639 60.3512C-183.449 101.864 -165.354 142.173 -129.767 162.027C-94.7839 181.279 -52.5628 177.669 -14.5636 165.637C47.562 145.783 113.91 113.897 180.257 130.742C191.114 133.75 201.971 137.36 212.828 143.376C276.16 177.67 285.208 258.288 322 315.443C352.762 363.574 397.999 404.485 454.093 418.322C533.71 437.575 614.534 399.07 684.501 357.558C720.69 334.696 759.293 306.419 784.022 272.126Z" stroke="black" stroke-width="0.3" stroke-miterlimit="10" stroke-linecap="round" stroke-linejoin="round"/>
<path d="M763.515 262.5C780.403 239.036 790.054 213.166 788.245 184.89C785.832 144.58 760.499 110.287 743.611 73.5877C736.976 59.1486 731.547 43.5061 729.738 27.262C721.294 -52.755 806.942 -113.52 795.482 -189.927C790.054 -225.423 773.166 -248.887 758.087 -283.18C744.214 -314.465 729.134 -340.335 698.976 -359.587C645.898 -393.279 572.312 -382.449 514.409 -404.71C511.393 -405.913 507.774 -407.116 504.758 -408.921C434.792 -440.808 422.728 -521.426 346.126 -546.695C303.302 -560.532 258.668 -541.28 235.145 -513.605C211.621 -485.93 201.971 -451.637 191.717 -411.929C179.654 -365.002 174.828 -317.473 142.258 -282.578C138.639 -278.969 135.02 -275.359 130.798 -271.749C100.64 -246.481 67.4655 -234.448 33.6884 -213.992C-26.6278 -177.293 -87.547 -115.926 -129.768 -46.7388C-150.276 -12.4457 -170.181 24.8554 -172.593 65.1647C-175.609 107.881 -154.498 151.8 -116.499 169.849C-82.1185 186.694 -41.7069 182.483 -5.51714 169.849C54.1959 149.393 116.925 116.303 180.257 131.344C191.114 133.751 201.368 137.361 211.621 142.775C273.144 174.06 284.604 251.069 321.397 304.614C352.761 350.94 396.792 388.843 449.87 400.875C525.266 418.323 603.074 383.428 668.818 343.72C704.405 322.663 739.991 295.59 763.515 262.5Z" stroke="black" stroke-width="0.3" stroke-miterlimit="10" stroke-linecap="round" stroke-linejoin="round"/>
<path d="M743.007 252.873C758.086 231.215 767.736 206.548 766.53 180.076C764.721 142.173 743.007 109.685 727.928 75.392C721.896 61.5545 717.071 47.1153 715.261 32.0745C706.817 -43.1294 781.006 -100.886 765.324 -171.277C757.483 -207.375 738.785 -227.83 725.515 -264.53C714.055 -297.018 703.198 -324.693 673.643 -346.352C624.787 -381.848 554.217 -375.23 498.123 -394.482C495.107 -395.686 492.092 -396.889 488.473 -398.092C420.315 -425.166 402.823 -491.345 329.238 -515.41C288.223 -528.646 246.605 -514.809 223.081 -492.548C199.558 -470.288 186.892 -442.011 174.828 -405.913C160.353 -363.198 155.527 -316.27 127.782 -281.376C124.766 -277.766 121.75 -274.156 118.734 -270.546C94.0048 -244.676 66.2592 -230.839 37.9105 -209.18C-13.9614 -170.074 -71.2618 -109.309 -112.88 -43.7311C-135.197 -8.23485 -158.117 29.668 -161.736 71.7822C-165.355 116.303 -142.435 162.629 -102.023 180.076C-68.2461 194.515 -30.2466 189.702 4.1336 176.466C60.8308 154.807 119.94 121.116 181.463 134.352C191.717 136.758 201.971 139.767 211.621 145.181C270.731 174.06 285.81 246.255 322.603 296.793C352.761 337.703 394.982 372.598 445.045 383.428C516.821 399.672 590.407 367.183 653.136 329.882C687.516 310.028 720.69 284.158 743.007 252.873Z" stroke="black" stroke-width="0.3" stroke-miterlimit="10" stroke-linecap="round" stroke-linejoin="round"/>
<path d="M722.5 243.247C736.975 222.792 745.42 199.93 744.817 175.263C744.214 140.368 725.515 109.685 712.246 76.5953C706.817 63.3594 702.595 50.1235 700.786 36.2859C692.342 -33.5034 754.467 -89.4551 735.166 -152.626C724.309 -189.326 704.405 -206.172 692.945 -245.879C683.294 -279.571 677.263 -308.449 648.311 -332.514C604.28 -368.612 536.123 -366.807 481.235 -383.051C478.219 -384.255 475.203 -384.856 472.188 -386.06C405.84 -408.922 383.523 -460.06 312.35 -483.524C273.144 -496.158 233.938 -487.134 210.415 -470.89C186.892 -454.646 171.21 -432.385 157.337 -399.897C140.448 -361.393 135.02 -315.669 112.703 -280.774C110.291 -277.164 107.878 -273.554 105.465 -269.945C85.5609 -243.473 64.4503 -227.831 40.3239 -204.367C-3.10379 -162.854 -56.1822 -102.691 -97.8003 -40.7229C-121.927 -4.02341 -147.863 34.4809 -152.688 78.4001C-157.513 124.726 -132.181 174.06 -88.7529 190.304C-55.579 202.336 -19.9923 196.922 13.1816 183.084C66.8629 160.222 122.354 125.929 182.067 137.36C192.321 139.165 201.971 142.173 211.622 146.986C268.319 173.458 286.414 241.442 323.206 288.37C352.761 326.272 393.173 357.557 440.823 367.183C508.98 381.623 578.947 352.744 637.454 316.646C670.628 297.996 701.992 273.329 722.5 243.247Z" stroke="black" stroke-width="0.3" stroke-miterlimit="10" stroke-linecap="round" stroke-linejoin="round"/>
<path d="M701.992 233.622C715.261 214.369 723.102 193.312 723.706 170.45C724.309 137.962 708.627 109.084 697.77 77.7989C693.548 65.7662 689.325 53.1319 687.516 39.896C679.072 -24.4786 727.928 -78.6255 706.817 -135.179C692.341 -173.082 671.834 -186.318 662.786 -228.432C655.548 -263.327 654.342 -293.408 625.39 -319.88C585.582 -357.181 520.44 -359.588 466.759 -373.425C463.743 -374.027 460.727 -375.23 457.711 -375.832C393.173 -394.482 365.428 -431.182 297.271 -452.841C259.875 -464.873 223.685 -461.264 199.559 -450.434C176.035 -439.605 157.941 -423.361 141.052 -394.482C121.751 -360.189 115.72 -315.067 99.4342 -280.774C97.6247 -277.164 95.8151 -273.554 94.0056 -269.945C78.9266 -242.871 63.8477 -225.424 45.1497 -200.757C10.1664 -156.236 -39.2927 -97.8778 -80.3077 -38.9179C-106.847 -1.01509 -135.196 38.091 -141.227 84.4166C-147.259 131.946 -119.513 184.889 -73.0701 199.328C-40.4994 209.556 -6.72211 202.938 24.0391 188.499C74.7046 165.035 126.576 130.141 184.48 139.165C194.13 140.97 203.781 143.377 212.828 147.588C267.113 171.653 288.223 234.825 325.619 278.744C355.174 313.037 393.777 340.712 438.411 349.736C502.949 362.371 568.693 336.501 624.184 302.809C653.739 285.362 682.69 261.898 701.992 233.622Z" stroke="black" stroke-width="0.3" stroke-miterlimit="10" stroke-linecap="round" stroke-linejoin="round"/>
<path d="M681.485 223.995C693.548 206.548 700.786 186.694 701.992 166.238C703.198 136.157 691.135 109.083 682.088 80.2051C678.469 68.7741 674.85 57.3431 673.04 45.3104C664.596 -14.2511 700.183 -65.3897 676.66 -115.325C658.565 -153.83 636.851 -164.057 630.216 -208.578C624.788 -244.676 628.407 -275.961 600.058 -305.441C563.868 -343.344 502.346 -350.563 450.474 -361.994C447.458 -362.596 444.442 -363.197 442.03 -363.799C378.698 -378.238 346.127 -399.897 280.985 -420.954C245.399 -432.385 211.622 -434.19 188.099 -428.775C163.972 -423.962 143.465 -413.734 124.767 -388.466C103.053 -358.986 97.0213 -313.864 85.5613 -279.571C84.355 -275.961 83.1484 -271.749 81.9421 -268.14C71.6883 -241.066 62.6409 -221.212 48.7682 -195.342C22.8322 -148.415 -24.2144 -90.6584 -64.0231 -35.3083C-92.3717 3.7978 -123.736 43.5055 -130.371 91.6361C-137.006 140.97 -107.451 197.523 -58.5945 210.157C-26.627 218.58 4.73759 210.759 34.2925 195.718C82.5454 171.051 130.195 135.555 185.686 143.376C195.337 144.58 204.384 146.986 212.828 150.596C265.303 172.255 288.827 231.215 326.826 271.524C355.778 302.809 392.57 326.874 435.395 334.695C496.314 346.126 558.44 323.264 610.312 291.378C636.851 272.727 663.39 250.467 681.485 223.995Z" stroke="black" stroke-width="0.3" stroke-miterlimit="10" stroke-linecap="round" stroke-linejoin="round"/>
<path d="M660.977 214.369C671.834 198.125 678.469 180.678 680.278 161.426C682.691 134.352 673.644 108.482 666.406 81.4086C663.39 71.1808 660.374 60.3515 658.565 49.5221C649.517 -4.62474 671.834 -53.357 646.501 -97.2761C624.184 -136.382 602.47 -143.602 597.645 -191.131C594.026 -228.432 601.867 -260.92 575.328 -292.807C543.36 -331.311 484.854 -343.945 434.188 -351.767C431.173 -352.368 428.76 -352.97 425.744 -352.97C364.221 -362.596 326.826 -369.815 263.494 -390.271C229.717 -401.1 198.955 -407.718 174.829 -408.32C150.702 -408.922 127.179 -404.71 106.672 -383.653C81.9419 -358.384 75.9101 -314.465 69.8785 -280.172C69.2753 -276.563 68.6722 -272.351 68.0691 -268.741C63.2438 -241.066 60.2278 -218.806 50.5772 -192.334C33.0855 -142.399 -10.342 -86.4468 -49.5475 -34.1049C-79.7056 6.20449 -114.086 46.5138 -121.927 96.4493C-129.768 147.588 -97.8006 207.751 -45.9287 218.581C-15.1675 225.199 14.9909 216.174 42.1331 200.532C87.3703 175.263 131.401 138.564 185.083 144.58C194.13 145.783 203.177 147.588 211.621 151.198C261.684 170.45 288.223 224.597 326.222 261.898C354.571 289.573 390.157 310.63 429.966 317.248C487.266 326.874 545.773 307.021 593.423 277.541C619.962 260.695 644.088 239.638 660.977 214.369Z" stroke="black" stroke-width="0.3" stroke-miterlimit="10" stroke-linecap="round" stroke-linejoin="round"/>
<path d="M640.469 204.141C650.12 189.101 656.152 173.458 658.564 156.011C661.58 131.344 656.151 107.279 650.723 82.6118C648.31 72.9857 645.898 63.3595 644.088 53.1318C635.041 4.39958 642.882 -41.3245 616.343 -79.2273C589.201 -118.333 567.487 -122.545 565.074 -173.082C563.265 -211.586 575.931 -244.676 549.995 -279.571C521.646 -318.677 466.759 -336.124 417.902 -341.539C414.887 -342.14 412.474 -342.14 409.458 -342.14C349.745 -347.555 306.92 -340.336 246.604 -358.986C214.637 -369.214 186.288 -381.247 162.162 -387.263C138.035 -393.279 111.496 -395.686 89.1791 -377.637C62.0368 -356.58 56.0051 -313.262 54.7988 -279.571C54.7988 -275.961 54.7988 -271.75 54.7988 -268.14C54.7988 -239.863 58.4177 -215.798 53.5924 -188.123C44.545 -135.781 4.73643 -81.0322 -34.4691 -31.6984C-67.0399 9.81424 -103.833 50.7251 -112.88 102.466C-121.928 155.409 -87.5473 219.182 -33.2627 227.605C-3.10462 232.418 24.6406 222.19 50.5766 205.946C92.7979 179.474 133.813 142.173 185.082 146.385C193.526 146.986 202.573 148.791 210.415 151.799C258.064 168.645 287.619 218.581 326.222 252.272C353.967 276.939 388.348 294.386 425.14 299.801C478.822 307.622 533.106 291.378 577.74 263.703C603.073 248.061 625.39 228.207 640.469 204.141Z" stroke="black" stroke-width="0.3" stroke-miterlimit="10" stroke-linecap="round" stroke-linejoin="round"/>
<path d="M619.962 194.515C628.406 181.279 633.835 166.84 636.851 151.198C641.073 128.937 638.66 106.677 635.041 83.8151C633.232 74.7906 631.422 66.3677 629.612 57.3432C620.565 13.4241 614.534 -28.0885 586.185 -61.1782C553.614 -99.081 532.503 -102.089 533.107 -155.033C533.107 -194.74 549.392 -228.432 525.266 -266.936C499.933 -306.644 449.267 -328.904 401.618 -331.913C399.205 -331.913 396.189 -331.913 393.777 -332.514C335.873 -333.717 287.62 -311.457 230.32 -329.506C200.162 -339.132 174.829 -355.978 150.702 -368.011C126.576 -380.043 97.021 -387.864 72.8945 -374.027C43.3396 -357.181 37.308 -314.465 40.927 -280.774C41.5302 -277.164 42.1333 -272.953 42.7364 -269.343C47.5617 -240.465 57.2124 -214.594 57.2124 -185.716C57.2124 -130.366 19.8164 -76.8207 -18.1828 -31.0967C-52.563 11.0175 -92.3716 53.1318 -102.625 107.279C-112.276 161.425 -76.6897 229.41 -18.7862 236.028C10.7688 239.036 36.7049 227.605 60.2282 210.759C100.037 183.084 136.83 145.181 186.289 147.588C194.733 148.19 202.574 149.393 210.415 151.799C256.256 166.239 288.223 211.963 326.826 242.044C353.968 263.101 386.539 277.541 420.919 281.752C470.378 288.37 521.647 274.532 562.059 249.264C586.185 236.028 606.089 217.377 619.962 194.515Z" stroke="black" stroke-width="0.3" stroke-miterlimit="10" stroke-linecap="round" stroke-linejoin="round"/>
<path d="M619.359 86.2213C614.534 39.294 592.217 -7.63337 556.63 -41.9264C518.631 -78.626 498.124 -80.4308 501.139 -135.781C502.949 -176.692 523.457 -210.985 500.536 -252.498C478.219 -292.807 431.776 -320.482 385.936 -320.482C326.826 -320.482 271.335 -278.969 214.035 -297.018C185.686 -306.043 162.766 -328.303 138.64 -345.751C114.513 -363.198 82.5458 -377.637 55.4036 -366.808C23.436 -354.174 17.4041 -312.661 26.4516 -278.969C35.499 -245.278 55.4034 -214.595 60.8318 -180.302C69.8792 -122.545 35.4993 -70.2031 -1.89674 -27.4872C-38.6896 15.8303 -81.514 58.5461 -92.3709 114.498C-103.228 170.45 -65.2288 243.247 -4.30955 246.255C72.2919 250.467 111.497 149.393 187.496 150.596C242.383 151.197 282.192 202.938 328.635 234.223C416.697 293.784 549.392 269.719 599.455 185.491C616.946 155.409 622.978 120.514 619.359 86.2213Z" stroke="black" stroke-width="0.3" stroke-miterlimit="10" stroke-linecap="round" stroke-linejoin="round"/>
</g>
<g filter="url(#filter0_f)">
<path d="M9.70199 249.336C3.56398 259.204 -3.73886 260.416 -6.62304 259.788C-9.43593 259.755 -20.9159 250.977 -6.89235 233.291C7.13117 215.605 40.633 223.705 37.0525 227.639C33.4721 231.573 17.3745 237.002 9.70199 249.336Z" fill="#7FA33E"/>
</g>
<defs>
<filter id="filter0_f" x="-41" y="192" width="103.498" height="90.8827" filterUnits="userSpaceOnUse" color-interpolation-filters="sRGB">
<feFlood flood-opacity="0" result="BackgroundImageFix"/>
<feBlend mode="normal" in="SourceGraphic" in2="BackgroundImageFix" result="shape"/>
<feGaussianBlur stdDeviation="10" result="effect1_foregroundBlur"/>
</filter>
</defs>
</svg>
