<svg width="16" height="77" viewBox="0 0 16 77" fill="none" xmlns="http://www.w3.org/2000/svg">
<path d="M13 75.8447L3.04687 75.8447L3.04687 72.5908C3.04687 71.5107 3.27018 70.6995 3.7168 70.1572C4.16341 69.6104 4.82422 69.3369 5.69922 69.3369C6.16406 69.3369 6.5765 69.4691 6.93652 69.7334C7.29199 69.9977 7.56771 70.3577 7.76367 70.8135C7.91406 70.2757 8.20117 69.8519 8.625 69.542C9.04427 69.2275 9.54557 69.0703 10.1289 69.0703C11.0221 69.0703 11.724 69.3597 12.2344 69.9385C12.7448 70.5173 13 71.3353 13 72.3926L13 75.8447ZM8.34473 74.5322L11.9268 74.5322L11.9268 72.3652C11.9268 71.7546 11.7695 71.2738 11.4551 70.9229C11.1361 70.5674 10.6986 70.3896 10.1426 70.3896C8.94401 70.3896 8.34473 71.0413 8.34473 72.3447L8.34473 74.5322ZM7.29199 74.5322L7.29199 72.5498C7.29199 71.9756 7.14844 71.5176 6.86133 71.1758C6.57422 70.8294 6.18457 70.6562 5.69238 70.6562C5.14551 70.6562 4.74902 70.8158 4.50293 71.1348C4.25228 71.4538 4.12695 71.9391 4.12695 72.5908L4.12695 74.5322L7.29199 74.5322ZM13 67.1221L3.04687 67.1221L3.04687 63.8682C3.04687 62.7881 3.27018 61.9769 3.7168 61.4346C4.16341 60.8877 4.82422 60.6143 5.69922 60.6143C6.16406 60.6143 6.5765 60.7464 6.93652 61.0107C7.29199 61.2751 7.56771 61.6351 7.76367 62.0908C7.91406 61.5531 8.20117 61.1292 8.625 60.8193C9.04427 60.5049 9.54557 60.3477 10.1289 60.3477C11.0221 60.3477 11.724 60.637 12.2344 61.2158C12.7448 61.7946 13 62.6126 13 63.6699L13 67.1221ZM8.34473 65.8096L11.9268 65.8096L11.9268 63.6426C11.9268 63.0319 11.7695 62.5511 11.4551 62.2002C11.1361 61.8447 10.6986 61.667 10.1426 61.667C8.94401 61.667 8.34473 62.3187 8.34473 63.6221L8.34473 65.8096ZM7.29199 65.8096L7.29199 63.8271C7.29199 63.2529 7.14844 62.7949 6.86133 62.4531C6.57422 62.1068 6.18457 61.9336 5.69238 61.9336C5.14551 61.9336 4.74902 62.0931 4.50293 62.4121C4.25228 62.7311 4.12695 63.2165 4.12695 63.8682L4.12695 65.8096L7.29199 65.8096ZM8.39941 52.7734L8.39941 57.0869L11.9268 57.0869L11.9268 52.0762L13 52.0762L13 58.3994L3.04687 58.3994L3.04687 52.1445L4.12695 52.1445L4.12695 57.0869L7.32617 57.0869L7.32617 52.7734L8.39941 52.7734ZM9.10351 49.1299L13 49.1299L13 50.4424L3.04687 50.4424L3.04687 46.7715C3.04687 45.6823 3.32487 44.8301 3.88086 44.2148C4.43685 43.5951 5.17285 43.2852 6.08887 43.2852C7.05501 43.2852 7.80013 43.5882 8.32422 44.1943C8.84375 44.7959 9.10351 45.6595 9.10351 46.7852L9.10351 49.1299ZM8.03027 49.1299L8.03027 46.7715C8.03027 46.0697 7.86621 45.5319 7.53808 45.1582C7.2054 44.7845 6.72689 44.5977 6.10254 44.5977C5.51009 44.5977 5.03613 44.7845 4.68066 45.1582C4.32519 45.5319 4.14062 46.0446 4.12695 46.6963L4.12695 49.1299L8.03027 49.1299ZM6.86133 38.582L3.04687 36.1963L3.04687 34.6514L7.98242 37.7959L13 34.5762L13 36.1348L9.11719 38.582L13 41.043L13 42.5947L7.98242 39.3682L3.04687 42.5195L3.04687 40.9814L6.86133 38.582Z" fill="#312F53"/>
<path d="M8 26V1M8 1L13 9M8 1L3 9" stroke="#312F53" stroke-linecap="round" stroke-linejoin="round"/>
</svg>
