<svg width="26" height="26" viewBox="0 0 26 26" fill="none" xmlns="http://www.w3.org/2000/svg">
<path d="M16.48 16.976V18H8.624V17.184L13.28 12.624C13.8667 12.048 14.2613 11.552 14.464 11.136C14.6773 10.7093 14.784 10.2827 14.784 9.856C14.784 9.19467 14.5547 8.68267 14.096 8.32C13.648 7.94667 13.0027 7.76 12.16 7.76C10.848 7.76 9.82933 8.176 9.104 9.008L8.288 8.304C8.72533 7.792 9.28 7.39733 9.952 7.12C10.6347 6.84267 11.4027 6.704 12.256 6.704C13.3973 6.704 14.2987 6.976 14.96 7.52C15.632 8.05333 15.968 8.78933 15.968 9.728C15.968 10.304 15.84 10.8587 15.584 11.392C15.328 11.9253 14.8427 12.5387 14.128 13.232L10.32 16.976H16.48Z" fill="#FF9040"/>
<circle cx="13" cy="13" r="12.5" stroke="#FF9040"/>
</svg>
