<svg width="26" height="26" viewBox="0 0 26 26" fill="none" xmlns="http://www.w3.org/2000/svg">
<path d="M12.64 11.6C13.8133 11.664 14.704 11.984 15.312 12.56C15.9307 13.1253 16.24 13.8667 16.24 14.784C16.24 15.424 16.0853 15.9947 15.776 16.496C15.4667 16.9867 15.008 17.376 14.4 17.664C13.792 17.952 13.0507 18.096 12.176 18.096C11.3653 18.096 10.5973 17.968 9.872 17.712C9.15733 17.4453 8.58133 17.0933 8.144 16.656L8.704 15.744C9.07733 16.128 9.57333 16.4427 10.192 16.688C10.8107 16.9227 11.472 17.04 12.176 17.04C13.0933 17.04 13.8027 16.8427 14.304 16.448C14.8053 16.0427 15.056 15.488 15.056 14.784C15.056 14.0907 14.8053 13.5467 14.304 13.152C13.8027 12.7573 13.0453 12.56 12.032 12.56H11.232V11.712L14.336 7.824H8.608V6.8H15.808V7.616L12.64 11.6Z" fill="#FF9040"/>
<circle cx="13" cy="13" r="12.5" stroke="#FF9040"/>
</svg>
